<?xml version="1.0" encoding="UTF-8"?><svg xmlns="http://www.w3.org/2000/svg" viewBox="0 0 253.15 228"><g id="a"/><g id="b"><g id="c"><path d="M172.66,66.18v20.68c0,3.41,1.83,6.56,4.78,8.27l70.93,40.95c2.96,1.71,4.78,4.86,4.78,8.27v50.81c0,3.41-1.82,6.56-4.78,8.27l-39.14,22.61c-1.46,.83-3.11,1.27-4.78,1.27h-38.31c-1.67,0-3.33-.44-4.78-1.27l-20.22-11.67-27.68-15.99c-2.96-1.71-4.78-4.87-4.78-8.28v-17.17c0-3.41-1.82-6.57-4.78-8.28l-17.38-10.04-35.81-20.68c-2.95-1.7-4.79-4.86-4.79-8.27v-20.68c0-3.41,1.84-6.57,4.79-8.27l30.81-17.8c2.97-1.71,4.79-4.86,4.79-8.27v-4.18c0-3.41-1.82-6.56-4.79-8.27l-17.65-10.2c-2.95-1.7-6.6-1.7-9.56,0l-9.05,5.23c-2.96,1.7-4.78,4.86-4.78,8.28V218.44c0,5.28-4.29,9.56-9.57,9.56H9.56c-5.28,0-9.56-4.28-9.56-9.56V43.45c0-3.18,1.58-6.15,4.21-7.93l17.61-11.89L54.59,1.52c2.97-1.7,6.62-1.7,9.57,0l57.76,33.36c.29,.17,.57,.35,.84,.55,2.47,1.77,3.94,4.64,3.94,7.72v50.78c0,3.43-1.81,6.59-4.78,8.29l-17.66,10.2c-2.13,1.23-2.13,4.29,0,5.51l17.26,9.97,17.45,10.08c2.95,1.71,4.78,4.86,4.78,8.28v17.18c0,3.41,1.82,6.57,4.78,8.28l21.75,12.56,10.76,6.21c2.96,1.7,6.61,1.7,9.56,0l17.67-10.22c2.96-1.7,4.78-4.86,4.78-8.27v-4.16c0-3.41-1.82-6.56-4.78-8.27l-71.22-41.13c-2.94-1.7-4.78-4.86-4.78-8.27V42.86c0-3.41,1.84-6.56,4.78-8.27l32.62-24.73,10.73-8.14c3.28-2.3,7.86-2.28,11.15,0l44.83,32.68,12,8.75c2.96,1.7,4.78,4.86,4.78,8.27v4.16c0,3.41-1.82,6.56-4.78,8.27l-9.34,5.4-8.33,4.81c-2.95,1.71-6.6,1.71-9.56,0l-25.22-14.57-5.84-3.37c-2.97-1.71-6.62-1.71-9.58,.02l-3.07,1.77c-2.95,1.71-4.77,4.86-4.77,8.27Z"/></g></g></svg>