<svg width="109" height="98" viewBox="0 0 109 98" fill="none" xmlns="http://www.w3.org/2000/svg">
<path d="M74.343 28.4457V37.3345C74.343 38.8002 75.131 40.1541 76.4012 40.8891L106.942 58.4905C108.216 59.2255 109 60.5794 109 62.0451V83.8845C109 85.3502 108.216 86.7041 106.942 87.4391L90.0892 97.1575C89.4605 97.5142 88.7501 97.7034 88.031 97.7034H71.5357C70.8166 97.7034 70.1019 97.5142 69.4775 97.1575L60.7713 92.1414L48.853 85.2685C47.5785 84.5335 46.7949 83.1753 46.7949 81.7096V74.3295C46.7949 72.8638 46.0112 71.5055 44.7367 70.7705L37.2533 66.4551L21.8344 57.5663C20.5643 56.8356 19.772 55.4774 19.772 54.0117V45.1229C19.772 43.6572 20.5643 42.299 21.8344 41.5683L35.1005 33.9174C36.3793 33.1824 37.1629 31.8284 37.1629 30.3627V28.5661C37.1629 27.1004 36.3793 25.7464 35.1005 25.0114L27.5008 20.6272C26.2306 19.8965 24.659 19.8965 23.3845 20.6272L19.4878 22.8752C18.2133 23.6059 17.4297 24.9641 17.4297 26.4341V93.8908C17.4297 96.1603 15.5825 97.9999 13.3091 97.9999H4.11629C1.84286 97.9999 0 96.1603 0 93.8908V18.6758C0 17.309 0.680308 16.0324 1.81272 15.2673L9.39514 10.1567L23.5051 0.653269C24.7839 -0.0774324 26.3555 -0.0774324 27.6257 0.653269L52.4957 14.9922C52.6205 15.0653 52.7411 15.1427 52.8574 15.2286C53.9209 15.9894 54.5538 17.223 54.5538 18.5469V40.3734C54.5538 41.8477 53.7745 43.2059 52.4957 43.9366L44.8917 48.3208C43.9746 48.8495 43.9746 50.1648 44.8917 50.6891L52.3234 54.9745L59.837 59.3071C61.1072 60.0421 61.8951 61.3961 61.8951 62.8661V70.2505C61.8951 71.7162 62.6788 73.0744 63.9533 73.8094L73.3183 79.208L77.9513 81.8772C79.2258 82.6079 80.7974 82.6079 82.0676 81.8772L89.6758 77.4844C90.9503 76.7537 91.734 75.3955 91.734 73.9298V72.1417C91.734 70.676 90.9503 69.322 89.6758 68.587L59.0103 50.9084C57.7444 50.1777 56.9521 48.8194 56.9521 47.3537V18.4222C56.9521 16.9565 57.7444 15.6026 59.0103 14.8676L73.0556 4.23801L77.6757 0.739234C79.088 -0.249362 81.06 -0.240766 82.4766 0.739234L101.779 14.7859L106.946 18.5469C108.221 19.2776 109.004 20.6358 109.004 22.1015V23.8896C109.004 25.3553 108.221 26.7092 106.946 27.4442L102.925 29.7653L99.3379 31.8327C98.0677 32.5677 96.4961 32.5677 95.2216 31.8327L84.3625 25.5702L81.848 24.1217C80.5692 23.3867 78.9976 23.3867 77.7231 24.1303L76.4012 24.8911C75.131 25.6261 74.3473 26.98 74.3473 28.4457H74.343Z" fill="#11C1A2"/>
</svg>
